<svg width="379" height="30" viewBox="0 0 379 30" fill="none" xmlns="http://www.w3.org/2000/svg">
<path d="M24.125 26.1289C22.8229 27.2487 21.3646 28.1081 19.75 28.707C18.1354 29.306 16.4622 29.6055 14.7305 29.6055C13.4023 29.6055 12.1198 29.4297 10.8828 29.0781C9.65885 28.7396 8.50651 28.2578 7.42578 27.6328C6.35807 26.9948 5.38151 26.2331 4.49609 25.3477C3.61068 24.4622 2.84896 23.4857 2.21094 22.418C1.58594 21.3372 1.09766 20.1849 0.746094 18.9609C0.407552 17.724 0.238281 16.4414 0.238281 15.1133C0.238281 13.7852 0.407552 12.5026 0.746094 11.2656C1.09766 10.0286 1.58594 8.8763 2.21094 7.80859C2.84896 6.72786 3.61068 5.74479 4.49609 4.85938C5.38151 3.97396 6.35807 3.21875 7.42578 2.59375C8.50651 1.95573 9.65885 1.46745 10.8828 1.12891C12.1198 0.777344 13.4023 0.601562 14.7305 0.601562C16.4622 0.601562 18.1354 0.901042 19.75 1.5C21.3646 2.08594 22.8229 2.94531 24.125 4.07812L21.1562 8.96094C20.3359 8.07552 19.3659 7.39844 18.2461 6.92969C17.1263 6.44792 15.9544 6.20703 14.7305 6.20703C13.4935 6.20703 12.3346 6.44141 11.2539 6.91016C10.1732 7.37891 9.22917 8.01693 8.42188 8.82422C7.61458 9.61849 6.97656 10.5625 6.50781 11.6562C6.03906 12.737 5.80469 13.8893 5.80469 15.1133C5.80469 16.3372 6.03906 17.4896 6.50781 18.5703C6.97656 19.638 7.61458 20.5755 8.42188 21.3828C9.22917 22.1901 10.1732 22.8281 11.2539 23.2969C12.3346 23.7656 13.4935 24 14.7305 24C15.9544 24 17.1263 23.7656 18.2461 23.2969C19.3659 22.8151 20.3359 22.1315 21.1562 21.2461L24.125 26.1289ZM50.9961 29H31.3867V0.992188H36.9922V23.3945H50.9961V29ZM63.5312 29H57.9258V0.992188H63.5312V29ZM95.1094 26.1289C93.8073 27.2487 92.349 28.1081 90.7344 28.707C89.1198 29.306 87.4466 29.6055 85.7148 29.6055C84.3867 29.6055 83.1042 29.4297 81.8672 29.0781C80.6432 28.7396 79.4909 28.2578 78.4102 27.6328C77.3424 26.9948 76.3659 26.2331 75.4805 25.3477C74.5951 24.4622 73.8333 23.4857 73.1953 22.418C72.5703 21.3372 72.082 20.1849 71.7305 18.9609C71.3919 17.724 71.2227 16.4414 71.2227 15.1133C71.2227 13.7852 71.3919 12.5026 71.7305 11.2656C72.082 10.0286 72.5703 8.8763 73.1953 7.80859C73.8333 6.72786 74.5951 5.74479 75.4805 4.85938C76.3659 3.97396 77.3424 3.21875 78.4102 2.59375C79.4909 1.95573 80.6432 1.46745 81.8672 1.12891C83.1042 0.777344 84.3867 0.601562 85.7148 0.601562C87.4466 0.601562 89.1198 0.901042 90.7344 1.5C92.349 2.08594 93.8073 2.94531 95.1094 4.07812L92.1406 8.96094C91.3203 8.07552 90.3503 7.39844 89.2305 6.92969C88.1107 6.44792 86.9388 6.20703 85.7148 6.20703C84.4779 6.20703 83.319 6.44141 82.2383 6.91016C81.1576 7.37891 80.2135 8.01693 79.4062 8.82422C78.599 9.61849 77.9609 10.5625 77.4922 11.6562C77.0234 12.737 76.7891 13.8893 76.7891 15.1133C76.7891 16.3372 77.0234 17.4896 77.4922 18.5703C77.9609 19.638 78.599 20.5755 79.4062 21.3828C80.2135 22.1901 81.1576 22.8281 82.2383 23.2969C83.319 23.7656 84.4779 24 85.7148 24C86.9388 24 88.1107 23.7656 89.2305 23.2969C90.3503 22.8151 91.3203 22.1315 92.1406 21.2461L95.1094 26.1289ZM107.977 29H102.371V0.992188H107.977V14.9961L118.406 0.992188H124.773L115.926 12.8086L124.773 29H118.406L112.254 17.6719L107.977 23.3945V29ZM156.699 4.52734H160.977V8.76562H152.695C152.409 8.76562 152.135 8.82422 151.875 8.94141C151.628 9.04557 151.406 9.19531 151.211 9.39062C151.016 9.58594 150.859 9.8138 150.742 10.0742C150.638 10.3216 150.586 10.5885 150.586 10.875C150.586 11.1745 150.638 11.4609 150.742 11.7344C150.859 11.9948 151.016 12.2227 151.211 12.418C151.406 12.6133 151.628 12.7695 151.875 12.8867C152.135 12.9909 152.409 13.043 152.695 13.043H157.793V17.2812H152.695C152.409 17.2812 152.135 17.3398 151.875 17.457C151.628 17.5612 151.406 17.7109 151.211 17.9062C151.016 18.1016 150.859 18.3294 150.742 18.5898C150.638 18.8372 150.586 19.1042 150.586 19.3906C150.586 19.6901 150.638 19.9766 150.742 20.25C150.859 20.5104 151.016 20.7383 151.211 20.9336C151.406 21.1289 151.628 21.2852 151.875 21.4023C152.135 21.5065 152.409 21.5586 152.695 21.5586H160.977V25.7969H156.699V29H153.105V25.7969H152.695C151.81 25.7969 150.983 25.6341 150.215 25.3086C149.447 24.9701 148.776 24.5143 148.203 23.9414C147.63 23.3555 147.174 22.6784 146.836 21.9102C146.51 21.1289 146.348 20.2891 146.348 19.3906C146.348 18.6094 146.484 17.8542 146.758 17.125C147.031 16.3958 147.441 15.7383 147.988 15.1523C147.441 14.5664 147.031 13.9089 146.758 13.1797C146.484 12.4505 146.348 11.6823 146.348 10.875C146.348 10.0026 146.51 9.18229 146.836 8.41406C147.174 7.63281 147.63 6.95573 148.203 6.38281C148.776 5.8099 149.447 5.36068 150.215 5.03516C150.983 4.69661 151.81 4.52734 152.695 4.52734H153.105V0.953125H156.699V4.52734ZM207.609 26.1289C206.307 27.2487 204.849 28.1081 203.234 28.707C201.62 29.306 199.947 29.6055 198.215 29.6055C196.887 29.6055 195.604 29.4297 194.367 29.0781C193.143 28.7396 191.991 28.2578 190.91 27.6328C189.842 26.9948 188.866 26.2331 187.98 25.3477C187.095 24.4622 186.333 23.4857 185.695 22.418C185.07 21.3372 184.582 20.1849 184.23 18.9609C183.892 17.724 183.723 16.4414 183.723 15.1133C183.723 13.7852 183.892 12.5026 184.23 11.2656C184.582 10.0286 185.07 8.8763 185.695 7.80859C186.333 6.72786 187.095 5.74479 187.98 4.85938C188.866 3.97396 189.842 3.21875 190.91 2.59375C191.991 1.95573 193.143 1.46745 194.367 1.12891C195.604 0.777344 196.887 0.601562 198.215 0.601562C199.947 0.601562 201.62 0.901042 203.234 1.5C204.849 2.08594 206.307 2.94531 207.609 4.07812L204.641 8.96094C203.82 8.07552 202.85 7.39844 201.73 6.92969C200.611 6.44792 199.439 6.20703 198.215 6.20703C196.978 6.20703 195.819 6.44141 194.738 6.91016C193.658 7.37891 192.714 8.01693 191.906 8.82422C191.099 9.61849 190.461 10.5625 189.992 11.6562C189.523 12.737 189.289 13.8893 189.289 15.1133C189.289 16.3372 189.523 17.4896 189.992 18.5703C190.461 19.638 191.099 20.5755 191.906 21.3828C192.714 22.1901 193.658 22.8281 194.738 23.2969C195.819 23.7656 196.978 24 198.215 24C199.439 24 200.611 23.7656 201.73 23.2969C202.85 22.8151 203.82 22.1315 204.641 21.2461L207.609 26.1289ZM241.492 15.1133C241.492 16.4414 241.316 17.724 240.965 18.9609C240.626 20.1849 240.145 21.3372 239.52 22.418C238.895 23.4857 238.139 24.4622 237.254 25.3477C236.368 26.2331 235.392 26.9948 234.324 27.6328C233.257 28.2578 232.104 28.7396 230.867 29.0781C229.63 29.4297 228.348 29.6055 227.02 29.6055C225.691 29.6055 224.409 29.4297 223.172 29.0781C221.948 28.7396 220.796 28.2578 219.715 27.6328C218.647 26.9948 217.671 26.2331 216.785 25.3477C215.9 24.4622 215.138 23.4857 214.5 22.418C213.875 21.3372 213.387 20.1849 213.035 18.9609C212.697 17.724 212.527 16.4414 212.527 15.1133C212.527 13.7852 212.697 12.5026 213.035 11.2656C213.387 10.0286 213.875 8.8763 214.5 7.80859C215.138 6.74089 215.9 5.76432 216.785 4.87891C217.671 3.99349 218.647 3.23828 219.715 2.61328C220.796 1.98828 221.948 1.50651 223.172 1.16797C224.409 0.816406 225.691 0.640625 227.02 0.640625C228.348 0.640625 229.63 0.816406 230.867 1.16797C232.104 1.50651 233.257 1.98828 234.324 2.61328C235.392 3.23828 236.368 3.99349 237.254 4.87891C238.139 5.76432 238.895 6.74089 239.52 7.80859C240.145 8.8763 240.626 10.0286 240.965 11.2656C241.316 12.5026 241.492 13.7852 241.492 15.1133ZM235.926 15.1133C235.926 13.8893 235.691 12.737 235.223 11.6562C234.754 10.5625 234.116 9.61849 233.309 8.82422C232.514 8.01693 231.57 7.37891 230.477 6.91016C229.396 6.44141 228.243 6.20703 227.02 6.20703C225.783 6.20703 224.624 6.44141 223.543 6.91016C222.462 7.37891 221.518 8.01693 220.711 8.82422C219.904 9.61849 219.266 10.5625 218.797 11.6562C218.328 12.737 218.094 13.8893 218.094 15.1133C218.094 16.3372 218.328 17.4896 218.797 18.5703C219.266 19.638 219.904 20.5755 220.711 21.3828C221.518 22.1901 222.462 22.8281 223.543 23.2969C224.624 23.7656 225.783 24 227.02 24C228.243 24 229.396 23.7656 230.477 23.2969C231.57 22.8281 232.514 22.1901 233.309 21.3828C234.116 20.5755 234.754 19.638 235.223 18.5703C235.691 17.4896 235.926 16.3372 235.926 15.1133ZM268.793 29H249.184V0.992188H254.789V23.3945H268.793V29ZM295.332 29H275.723V0.992188H281.328V23.3945H295.332V29ZM321.461 29H302.262V0.992188H321.461V6.59766H307.867V12.2031H317.066V17.8086H307.867V23.3945H321.461V29ZM351.047 26.1289C349.745 27.2487 348.286 28.1081 346.672 28.707C345.057 29.306 343.384 29.6055 341.652 29.6055C340.324 29.6055 339.042 29.4297 337.805 29.0781C336.581 28.7396 335.428 28.2578 334.348 27.6328C333.28 26.9948 332.303 26.2331 331.418 25.3477C330.533 24.4622 329.771 23.4857 329.133 22.418C328.508 21.3372 328.02 20.1849 327.668 18.9609C327.329 17.724 327.16 16.4414 327.16 15.1133C327.16 13.7852 327.329 12.5026 327.668 11.2656C328.02 10.0286 328.508 8.8763 329.133 7.80859C329.771 6.72786 330.533 5.74479 331.418 4.85938C332.303 3.97396 333.28 3.21875 334.348 2.59375C335.428 1.95573 336.581 1.46745 337.805 1.12891C339.042 0.777344 340.324 0.601562 341.652 0.601562C343.384 0.601562 345.057 0.901042 346.672 1.5C348.286 2.08594 349.745 2.94531 351.047 4.07812L348.078 8.96094C347.258 8.07552 346.288 7.39844 345.168 6.92969C344.048 6.44792 342.876 6.20703 341.652 6.20703C340.415 6.20703 339.257 6.44141 338.176 6.91016C337.095 7.37891 336.151 8.01693 335.344 8.82422C334.536 9.61849 333.898 10.5625 333.43 11.6562C332.961 12.737 332.727 13.8893 332.727 15.1133C332.727 16.3372 332.961 17.4896 333.43 18.5703C333.898 19.638 334.536 20.5755 335.344 21.3828C336.151 22.1901 337.095 22.8281 338.176 23.2969C339.257 23.7656 340.415 24 341.652 24C342.876 24 344.048 23.7656 345.168 23.2969C346.288 22.8151 347.258 22.1315 348.078 21.2461L351.047 26.1289ZM370.066 29H364.48V6.59766H356.062V0.992188H378.465V6.59766H370.066V29Z" fill="#FFFFFE"/>
</svg>
